# xmcd CD database file
#
# Track frame offsets:
#	150
#	12629
#	21004
#	32051
#	45456
#	58419
#	74510
#	89387
#	99834
#	117002
#	129317
#	138780
#	157090
#	169771
#	181637
#	192461
#	212615
#	228583
#	243480
#
# Disc length: 3429 seconds
#
# Revision: 0
# Processed by: cddbd v1.5.2PL0 Copyright (c) Steve Scherf et al.
# Submitted via: CDex 1.77
#
DISCID=020d6313
DTITLE=Various Artist - Kings of Country [CD1]
DYEAR=2002
DGENRE=Country
TTITLE0=Johnny Cash - I Walk the Line
TTITLE1=Johnny Cash - Guess Things Happen That Way
TTITLE2=George Jones - Tender Years
TTITLE3=Waylon Jennings And WIllie Nelson - Good Hearted Woman
TTITLE4=Merle Haggard - Let's Chase Each Other Around the Room
TTITLE5=Willie Nelson - Blue Skies
TTITLE6=Willie Nelson - Nothing I Can Do About it Now
TTITLE7=George Jones - Walk Through This World With Me
TTITLE8=Johnny Cash - A Boy Named Sue
TTITLE9=George Jones - The Door
TTITLE10=Willie Nelson - If You've Got The Money I've Got The Time
TTITLE11=Johnny Cash - One Piece at A Time
TTITLE12=George Jones - White Lightning
TTITLE13=Johnny Cash - Ring of Fire
TTITLE14=Johnny Cash - Daddy Sang Bass
TTITLE15=Willie Nelson - Angel Flying Too Close to The Ground
TTITLE16=Willie Nelson - Always On My Mind
TTITLE17=George Jones - He Stopped Loving Her Today
TTITLE18=Merle Haggard - That's the Way Love Goes
EXTD=YEAR: 2002
EXTT0=
EXTT1=
EXTT2=
EXTT3=
EXTT4=
EXTT5=
EXTT6=
EXTT7=
EXTT8=
EXTT9=
EXTT10=
EXTT11=
EXTT12=
EXTT13=
EXTT14=
EXTT15=
EXTT16=
EXTT17=
EXTT18=
PLAYORDER=
